<mxfile host="app.diagrams.net" modified="2022-03-09T09:05:11.905Z" agent="5.0 (Windows NT 10.0; Win64; x64) AppleWebKit/537.36 (KHTML, like Gecko) Chrome/99.0.4844.51 Safari/537.36" etag="5mHP5ggUuib4Rkpoub0P" version="16.6.4" type="github">
  <diagram id="NxxsqZCPcX2PlIqRilHn" name="Page-1">
    <mxGraphModel dx="1248" dy="677" grid="1" gridSize="10" guides="1" tooltips="1" connect="1" arrows="1" fold="1" page="1" pageScale="1" pageWidth="850" pageHeight="1100" math="0" shadow="0">
      <root>
        <mxCell id="0" />
        <mxCell id="1" parent="0" />
        <mxCell id="6SlPkcXg1XJXGTFfmreU-27" style="edgeStyle=orthogonalEdgeStyle;rounded=0;orthogonalLoop=1;jettySize=auto;html=1;endArrow=none;endFill=0;startArrow=diamond;startFill=1;endSize=10;startSize=10;" edge="1" parent="1" source="6SlPkcXg1XJXGTFfmreU-9" target="6SlPkcXg1XJXGTFfmreU-17">
          <mxGeometry relative="1" as="geometry">
            <Array as="points">
              <mxPoint x="240" y="521" />
              <mxPoint x="310" y="521" />
            </Array>
          </mxGeometry>
        </mxCell>
        <mxCell id="6SlPkcXg1XJXGTFfmreU-28" style="edgeStyle=orthogonalEdgeStyle;rounded=0;orthogonalLoop=1;jettySize=auto;html=1;startArrow=diamond;startFill=1;endArrow=none;endFill=0;startSize=10;endSize=10;" edge="1" parent="1" source="6SlPkcXg1XJXGTFfmreU-9" target="6SlPkcXg1XJXGTFfmreU-21">
          <mxGeometry relative="1" as="geometry">
            <Array as="points">
              <mxPoint x="220" y="521" />
              <mxPoint x="150" y="521" />
            </Array>
          </mxGeometry>
        </mxCell>
        <mxCell id="6SlPkcXg1XJXGTFfmreU-9" value="Курс" style="swimlane;fontStyle=0;childLayout=stackLayout;horizontal=1;startSize=26;fillColor=none;horizontalStack=0;resizeParent=1;resizeParentMax=0;resizeLast=0;collapsible=1;marginBottom=0;" vertex="1" parent="1">
          <mxGeometry x="160" y="570" width="140" height="52" as="geometry" />
        </mxCell>
        <mxCell id="6SlPkcXg1XJXGTFfmreU-10" value="+ field: type" style="text;strokeColor=none;fillColor=none;align=left;verticalAlign=top;spacingLeft=4;spacingRight=4;overflow=hidden;rotatable=0;points=[[0,0.5],[1,0.5]];portConstraint=eastwest;" vertex="1" parent="6SlPkcXg1XJXGTFfmreU-9">
          <mxGeometry y="26" width="140" height="26" as="geometry" />
        </mxCell>
        <mxCell id="6SlPkcXg1XJXGTFfmreU-13" value="Пользователь" style="swimlane;fontStyle=0;childLayout=stackLayout;horizontal=1;startSize=26;fillColor=none;horizontalStack=0;resizeParent=1;resizeParentMax=0;resizeLast=0;collapsible=1;marginBottom=0;" vertex="1" parent="1">
          <mxGeometry x="160" y="300" width="140" height="52" as="geometry" />
        </mxCell>
        <mxCell id="6SlPkcXg1XJXGTFfmreU-14" value="+ field: type" style="text;strokeColor=none;fillColor=none;align=left;verticalAlign=top;spacingLeft=4;spacingRight=4;overflow=hidden;rotatable=0;points=[[0,0.5],[1,0.5]];portConstraint=eastwest;" vertex="1" parent="6SlPkcXg1XJXGTFfmreU-13">
          <mxGeometry y="26" width="140" height="26" as="geometry" />
        </mxCell>
        <mxCell id="6SlPkcXg1XJXGTFfmreU-26" style="edgeStyle=orthogonalEdgeStyle;rounded=0;orthogonalLoop=1;jettySize=auto;html=1;endArrow=block;endFill=0;endSize=10;startSize=10;" edge="1" parent="1" source="6SlPkcXg1XJXGTFfmreU-17" target="6SlPkcXg1XJXGTFfmreU-13">
          <mxGeometry relative="1" as="geometry" />
        </mxCell>
        <mxCell id="6SlPkcXg1XJXGTFfmreU-17" value="Учащийся" style="swimlane;fontStyle=0;childLayout=stackLayout;horizontal=1;startSize=26;fillColor=none;horizontalStack=0;resizeParent=1;resizeParentMax=0;resizeLast=0;collapsible=1;marginBottom=0;" vertex="1" parent="1">
          <mxGeometry x="240" y="430" width="140" height="52" as="geometry" />
        </mxCell>
        <mxCell id="6SlPkcXg1XJXGTFfmreU-18" value="+ field: type" style="text;strokeColor=none;fillColor=none;align=left;verticalAlign=top;spacingLeft=4;spacingRight=4;overflow=hidden;rotatable=0;points=[[0,0.5],[1,0.5]];portConstraint=eastwest;" vertex="1" parent="6SlPkcXg1XJXGTFfmreU-17">
          <mxGeometry y="26" width="140" height="26" as="geometry" />
        </mxCell>
        <mxCell id="6SlPkcXg1XJXGTFfmreU-25" style="edgeStyle=orthogonalEdgeStyle;rounded=0;orthogonalLoop=1;jettySize=auto;html=1;endArrow=block;endFill=0;endSize=10;startSize=10;" edge="1" parent="1" source="6SlPkcXg1XJXGTFfmreU-21" target="6SlPkcXg1XJXGTFfmreU-13">
          <mxGeometry relative="1" as="geometry" />
        </mxCell>
        <mxCell id="6SlPkcXg1XJXGTFfmreU-21" value="Преподаватель" style="swimlane;fontStyle=0;childLayout=stackLayout;horizontal=1;startSize=26;fillColor=none;horizontalStack=0;resizeParent=1;resizeParentMax=0;resizeLast=0;collapsible=1;marginBottom=0;" vertex="1" parent="1">
          <mxGeometry x="80" y="430" width="140" height="52" as="geometry" />
        </mxCell>
        <mxCell id="6SlPkcXg1XJXGTFfmreU-22" value="+ field: type" style="text;strokeColor=none;fillColor=none;align=left;verticalAlign=top;spacingLeft=4;spacingRight=4;overflow=hidden;rotatable=0;points=[[0,0.5],[1,0.5]];portConstraint=eastwest;" vertex="1" parent="6SlPkcXg1XJXGTFfmreU-21">
          <mxGeometry y="26" width="140" height="26" as="geometry" />
        </mxCell>
      </root>
    </mxGraphModel>
  </diagram>
</mxfile>
